<?xml version="1.0" encoding="UTF-8" standalone="no"?>
<svg width="520px" height="57px" viewBox="0 0 520 57" version="1.1" xmlns="http://www.w3.org/2000/svg" xmlns:xlink="http://www.w3.org/1999/xlink">
    <!-- Generator: Sketch 43.2 (39069) - http://www.bohemiancoding.com/sketch -->
    <title>TECH-MEX.IO Copy 17</title>
    <desc>Created with Sketch.</desc>
    <defs>
        <linearGradient x1="101.828749%" y1="100%" x2="0%" y2="0%" id="linearGradient-1">
            <stop stop-color="#0CFEEB" offset="0%"></stop>
            <stop stop-color="#C48181" offset="51.8325275%"></stop>
            <stop stop-color="#FF8F1E" offset="100%"></stop>
        </linearGradient>
    </defs>
    <g id="Page-1" stroke="none" stroke-width="1" fill="none" fill-rule="evenodd">
        <g id="Desktop-HD-Copy" transform="translate(-460.000000, -201.000000)" fill="url(#linearGradient-1)">
            <g id="tech-mex-logo" transform="translate(460.000000, 87.000000)">
                <path d="M18.7145764,168.882587 L18.7145764,118.911842 L1.91127589,118.911842 C1.38036327,118.911842 0.929094306,118.712598 0.557455468,118.314106 C0.185816631,117.915613 0,117.450712 0,116.919388 C0,116.388064 0.185816631,115.936446 0.557455468,115.564519 C0.929094306,115.192593 1.38036327,115.006632 1.91127589,115.006632 L39.3404288,115.006632 C39.8713414,115.006632 40.3226104,115.192593 40.6942492,115.564519 C41.065888,115.936446 41.2517047,116.388064 41.2517047,116.919388 C41.2517047,117.450712 41.065888,117.915613 40.6942492,118.314106 C40.3226104,118.712598 39.8713414,118.911842 39.3404288,118.911842 L22.5371282,118.911842 L22.5371282,168.882587 C22.5371282,169.41391 22.3513116,169.865529 21.9796728,170.237455 C21.6080339,170.609382 21.156765,170.795342 20.6258523,170.795342 C20.0949397,170.795342 19.6436707,170.609382 19.2720319,170.237455 C18.9003931,169.865529 18.7145764,169.41391 18.7145764,168.882587 Z M55.9048198,168.882587 L55.9048198,116.919388 C55.9048198,116.388064 56.0906365,115.936446 56.4622753,115.564519 C56.8339141,115.192593 57.2851831,115.006632 57.8160957,115.006632 L86.4852341,115.006632 C87.0161467,115.006632 87.4674157,115.192593 87.8390545,115.564519 C88.2106934,115.936446 88.39651,116.401347 88.39651,116.959237 C88.39651,117.517127 88.2106934,117.982028 87.8390545,118.353955 C87.4674157,118.725881 87.0161467,118.911842 86.4852341,118.911842 L59.8070081,118.911842 L59.8070081,140.988232 L83.1405013,140.988232 C83.6714139,140.988232 84.1226829,141.187475 84.4943217,141.585968 C84.8659606,141.98446 85.0517772,142.449362 85.0517772,142.980685 C85.0517772,143.512009 84.8659606,143.963628 84.4943217,144.335554 C84.1226829,144.707481 83.6714139,144.893441 83.1405013,144.893441 L59.8070081,144.893441 L59.8070081,166.890133 L86.4852341,166.890133 C87.0161467,166.890133 87.4674157,167.076093 87.8390545,167.44802 C88.2106934,167.819946 88.39651,168.284848 88.39651,168.842738 C88.39651,169.400627 88.2106934,169.865529 87.8390545,170.237455 C87.4674157,170.609382 87.0161467,170.795342 86.4852341,170.795342 L57.6568227,170.795342 C57.1790014,170.74221 56.7675503,170.542967 56.4224571,170.197606 C56.0773639,169.852246 55.9048198,169.41391 55.9048198,168.882587 Z M109.141817,162.546583 C103.487598,157.047383 100.66053,150.37937 100.66053,142.542346 C100.66053,134.705321 103.487598,128.037308 109.141817,122.538108 C114.796037,117.038908 121.631434,114.262783 129.648215,114.209651 C136.337714,114.209651 142.336936,116.255216 147.646063,120.346409 C148.070793,120.718335 148.322972,121.183237 148.402609,121.741126 C148.482246,122.299016 148.336247,122.763918 147.964609,123.135844 C147.646061,123.614036 147.208065,123.879693 146.650606,123.932826 C146.093148,123.985958 145.628607,123.853129 145.256968,123.534335 C140.638028,119.921334 135.435162,118.11486 129.648215,118.11486 C122.693259,118.11486 116.773672,120.505781 111.889276,125.287694 C107.00488,130.069608 104.562719,135.834384 104.562719,142.582195 C104.562719,149.330006 107.00488,155.068216 111.889276,159.796997 C116.773672,164.525778 122.467625,166.890133 128.971304,166.890133 C135.474984,166.890133 140.850394,165.083659 145.097695,161.470658 C145.575516,161.151864 146.093148,161.032318 146.650606,161.112016 C147.208065,161.191715 147.619516,161.470656 147.884972,161.948847 C148.256611,162.320774 148.415882,162.798958 148.362791,163.383414 C148.3097,163.96787 148.070793,164.419488 147.646063,164.738282 C142.390028,168.776343 136.390805,170.795342 129.648215,170.795342 C121.631434,170.795342 114.796037,168.045783 109.141817,162.546583 Z M197.100326,168.882587 L197.100326,144.813743 L168.431188,144.813743 L168.431188,168.882587 C168.431188,169.41391 168.232099,169.865529 167.833914,170.237455 C167.43573,170.609382 166.971188,170.795342 166.440276,170.795342 C165.909363,170.795342 165.458094,170.609382 165.086455,170.237455 C164.714816,169.865529 164.529,169.41391 164.529,168.882587 L164.529,116.919388 C164.529,116.388064 164.714816,115.936446 165.086455,115.564519 C165.458094,115.192593 165.909363,115.006632 166.440276,115.006632 C166.971188,115.006632 167.43573,115.192593 167.833914,115.564519 C168.232099,115.936446 168.431188,116.388064 168.431188,116.919388 L168.431188,140.988232 L197.100326,140.988232 L197.100326,116.919388 C197.100326,116.388064 197.286143,115.936446 197.657782,115.564519 C198.029421,115.192593 198.48069,115.006632 199.011602,115.006632 C199.542515,115.006632 200.007056,115.192593 200.405241,115.564519 C200.803425,115.936446 201.002515,116.388064 201.002515,116.919388 L201.002515,168.882587 C201.002515,169.41391 200.803425,169.865529 200.405241,170.237455 C200.007056,170.609382 199.542515,170.795342 199.011602,170.795342 C198.48069,170.795342 198.029421,170.609382 197.657782,170.237455 C197.286143,169.865529 197.100326,169.41391 197.100326,168.882587 Z M219.478182,144.654347 C218.469448,144.654347 217.965088,144.149597 217.965088,143.140082 C217.965088,142.130567 218.469448,141.625817 219.478182,141.625817 L236.440755,141.625817 C237.449489,141.625817 237.953849,142.104001 237.953849,143.060384 C237.953849,143.538575 237.80785,143.923779 237.515848,144.216007 C237.223846,144.508235 236.865485,144.654347 236.440755,144.654347 L219.478182,144.654347 Z M296.486673,168.882587 L296.486673,122.976448 L278.648098,147.762575 C278.276459,148.347031 277.745554,148.639255 277.055368,148.639255 L276.896095,148.639255 C276.152817,148.639255 275.595367,148.347031 275.223728,147.762575 L257.385153,123.056146 L257.385153,168.882587 C257.385153,169.41391 257.199337,169.865529 256.827698,170.237455 C256.456059,170.609382 256.00479,170.795342 255.473878,170.795342 C254.942965,170.795342 254.478423,170.609382 254.080239,170.237455 C253.682054,169.865529 253.482965,169.41391 253.482965,168.882587 L253.482965,117.238181 C253.482965,116.600592 253.748418,116.095842 254.27933,115.723916 L254.438603,115.564519 C255.500428,114.873798 256.402966,115.033193 257.146244,116.042708 L276.975731,143.538573 L296.725582,116.042708 C296.991039,115.617649 297.40249,115.365274 297.959948,115.285576 C298.517406,115.205877 299.008493,115.298857 299.433223,115.564519 C300.017227,116.148975 300.309225,116.706857 300.309225,117.238181 L300.309225,168.882587 C300.309225,169.41391 300.123408,169.865529 299.751769,170.237455 C299.38013,170.609382 298.928861,170.795342 298.397949,170.795342 C297.867036,170.795342 297.415767,170.609382 297.044128,170.237455 C296.672489,169.865529 296.486673,169.41391 296.486673,168.882587 Z M320.696167,168.882587 L320.696167,116.919388 C320.696167,116.388064 320.881984,115.936446 321.253623,115.564519 C321.625262,115.192593 322.076531,115.006632 322.607443,115.006632 L351.276582,115.006632 C351.807494,115.006632 352.258763,115.192593 352.630402,115.564519 C353.002041,115.936446 353.187858,116.401347 353.187858,116.959237 C353.187858,117.517127 353.002041,117.982028 352.630402,118.353955 C352.258763,118.725881 351.807494,118.911842 351.276582,118.911842 L324.598356,118.911842 L324.598356,140.988232 L347.931849,140.988232 C348.462761,140.988232 348.91403,141.187475 349.285669,141.585968 C349.657308,141.98446 349.843125,142.449362 349.843125,142.980685 C349.843125,143.512009 349.657308,143.963628 349.285669,144.335554 C348.91403,144.707481 348.462761,144.893441 347.931849,144.893441 L324.598356,144.893441 L324.598356,166.890133 L351.276582,166.890133 C351.807494,166.890133 352.258763,167.076093 352.630402,167.44802 C353.002041,167.819946 353.187858,168.284848 353.187858,168.842738 C353.187858,169.400627 353.002041,169.865529 352.630402,170.237455 C352.258763,170.609382 351.807494,170.795342 351.276582,170.795342 L322.44817,170.795342 C321.970349,170.74221 321.558898,170.542967 321.213805,170.197606 C320.868711,169.852246 320.696167,169.41391 320.696167,168.882587 Z M366.487152,170.396852 C365.425327,169.599866 365.319146,168.696629 366.168606,167.687114 L384.086818,143.060384 L366.168606,118.433653 C365.796967,118.008594 365.650969,117.517127 365.730606,116.959237 C365.810242,116.401347 366.062422,115.989577 366.487152,115.723916 C366.911882,115.351989 367.402969,115.205877 367.960427,115.285576 C368.517886,115.365274 368.929337,115.617649 369.194793,116.042708 L386.475913,139.792759 L403.757032,116.042708 C404.606492,115.033193 405.50903,114.92693 406.464673,115.723916 C406.889403,115.989577 407.154855,116.401347 407.261038,116.959237 C407.367221,117.517127 407.234494,118.008594 406.862855,118.433653 L388.865008,143.060384 L406.862855,167.687114 C407.234494,168.112173 407.367221,168.590357 407.261038,169.121681 C407.154855,169.653005 406.889403,170.064775 406.464673,170.357003 C406.039943,170.649231 405.588674,170.795342 405.110853,170.795342 C404.633031,170.795342 404.181762,170.503119 403.757032,169.918663 L386.475913,146.24831 L369.194793,169.918663 C368.876246,170.503119 368.451522,170.795342 367.920609,170.795342 C367.389697,170.795342 366.911882,170.662513 366.487152,170.396852 Z M423.666156,166.810435 C423.666156,165.694655 424.051062,164.751569 424.820885,163.98115 C425.590709,163.210731 426.533064,162.825527 427.647981,162.825527 C428.762897,162.825527 429.705253,163.210731 430.475076,163.98115 C431.2449,164.751569 431.629806,165.694655 431.629806,166.810435 C431.629806,167.926214 431.2449,168.8693 430.475076,169.639719 C429.705253,170.410139 428.762897,170.795342 427.647981,170.795342 C426.533064,170.795342 425.590709,170.410139 424.820885,169.639719 C424.051062,168.8693 423.666156,167.926214 423.666156,166.810435 Z M444.292008,168.882587 L444.292008,116.919388 C444.292008,116.388064 444.477825,115.936446 444.849464,115.564519 C445.221103,115.192593 445.672372,115.006632 446.203284,115.006632 C446.734197,115.006632 447.198738,115.192593 447.596923,115.564519 C447.995107,115.936446 448.194197,116.388064 448.194197,116.919388 L448.194197,168.882587 C448.194197,169.41391 447.995107,169.865529 447.596923,170.237455 C447.198738,170.609382 446.734197,170.795342 446.203284,170.795342 C445.672372,170.795342 445.221103,170.609382 444.849464,170.237455 C444.477825,169.865529 444.292008,169.41391 444.292008,168.882587 Z M465.554953,142.502497 C465.608044,134.638906 468.236022,127.95761 473.438966,122.45841 C478.641909,116.95921 484.972948,114.209651 492.43227,114.209651 C499.891592,114.209651 506.196085,116.95921 511.345938,122.45841 C516.49579,127.95761 519.097223,134.638906 519.150314,142.502497 C519.097223,150.366087 516.49579,157.047383 511.345938,162.546583 C506.196085,168.045783 499.891592,170.795342 492.43227,170.795342 C484.972948,170.795342 478.641909,168.045783 473.438966,162.546583 C468.236022,157.047383 465.608044,150.366087 465.554953,142.502497 Z M476.186425,125.207996 C471.700213,129.883645 469.457141,135.635138 469.457141,142.462647 C469.457141,149.290157 471.700213,155.068216 476.186425,159.796997 C480.672637,164.525778 486.048046,166.890133 492.312815,166.890133 C498.577584,166.890133 503.939721,164.512495 508.399387,159.757148 C512.859053,155.0018 515.115398,149.250308 515.168489,142.502497 C515.115398,135.648421 512.872326,129.883645 508.439206,125.207996 C504.006085,120.532348 498.643948,118.194558 492.352633,118.194558 C486.061319,118.194558 480.672637,120.532348 476.186425,125.207996 Z" id="TECH-MEX.IO-Copy-17"></path>
            </g>
        </g>
    </g>
</svg>