<?xml version="1.0" encoding="UTF-8" standalone="no"?>
<svg width="87px" height="75px" viewBox="0 0 87 75" version="1.1" xmlns="http://www.w3.org/2000/svg" xmlns:xlink="http://www.w3.org/1999/xlink">
    <!-- Generator: Sketch 43.2 (39069) - http://www.bohemiancoding.com/sketch -->
    <title>Collibri</title>
    <desc>Created with Sketch.</desc>
    <defs></defs>
    <g id="Page-1" stroke="none" stroke-width="1" fill="none" fill-rule="evenodd">
        <g id="Desktop-HD-Copy" transform="translate(-676.000000, -87.000000)" fill="#333F57">
            <g id="tech-mex-logo" transform="translate(460.000000, 87.000000)">
                <g id="Collibri" transform="translate(216.306156, 0.000000)">
                    <path d="M0.513781812,6.8258801 C0.513781812,6.8258801 -0.239193045,4.93177759 0.513781812,3.43751691 C2.18132745,1.01195538 5.00024405,4.49731607 7.02454377,5.85777633 C18.6917695,13.6992921 30.6135089,21.9384665 43.6779179,26.9130976 C33.8274032,28.0611614 26.2746583,24.0094101 18.5991626,20.1366831 C12.0610537,16.8378321 3.55924347,12.9067819 0.513781812,6.8258801" id="Fill-6"></path>
                    <path d="M14.9822419,0.291429176 C15.1102756,-0.364473603 15.9468452,0.291429176 15.9468452,0.291429176 C25.9042618,8.93325237 35.7062977,17.7307082 47.05375,24.9771396 C43.8995218,25.7228664 40.795637,23.7567175 37.8903288,22.3148542 C35.2146732,20.9868304 32.4992401,19.5689826 29.9329725,17.9586992 C23.2460088,13.7628551 14.6332568,9.46564707 14.9822419,0.291429176" id="Fill-3"></path>
                    <path d="M39.57854,29.0912375 C36.0936618,30.5979738 31.6168331,31.5682608 25.8335636,31.0274451 C20.4782125,30.5268631 12.513398,26.7321084 8.95393696,23.7669787 C6.99272181,22.1333036 4.37859696,18.9772978 5.33636358,16.5065123 C16.1570753,21.296817 25.516587,27.554248 39.57854,29.0912375" id="Fill-8"></path>
                    <path d="M66.1038585,27.1551548 C64.9580812,30.5226214 59.8488531,29.9122544 56.940748,31.5113098 C57.0044541,33.6268536 57.9087698,35.9117531 57.1815881,38.0456984 C56.2744756,37.9883108 56.2415349,37.0535791 55.9761447,36.3518287 C53.8029902,42.8837221 49.2546865,47.0312234 41.9897066,48.452502 C46.4360806,43.4766233 48.0675779,35.6750293 50.4296753,28.6073104 C52.0655233,27.3987401 55.0715182,29.2551041 57.6638898,28.8493363 C60.7000286,28.3737055 63.0773533,25.0464725 66.1038585,27.1551548" id="Fill-10"></path>
                    <path d="M37.1670938,31.7533981 C37.5772988,31.6645097 37.6220484,31.942091 37.6493955,32.23745 C35.5051418,36.2315018 24.0613535,42.2412929 21.7340614,34.4156835 C27.4713383,34.1234434 33.2393805,33.8617685 37.1670938,31.7533981" id="Fill-12"></path>
                    <path d="M35.9613706,35.867652 C36.7622027,38.882684 34.0623078,45.7975772 29.6917595,42.8860924 C30.877625,39.6393269 34.047702,38.3839733 35.9613706,35.867652" id="Fill-14"></path>
                    <path d="M60.5576688,47.4844606 C59.710844,47.5275013 59.7646057,46.6669993 59.1107638,46.5163568 C58.5641345,46.774601 58.2344166,47.2505438 58.1461604,47.9685125 C57.1141218,46.2612315 56.1057011,44.5305589 53.0823035,44.8224871 C55.1311534,42.5887374 61.1129994,43.4819878 60.5576688,47.4844606" id="Fill-16"></path>
                    <path d="M55.4938119,50.6307666 C55.1970348,50.5250362 54.9984582,50.3210608 55.0115102,49.9046888 C54.4064578,50.2655445 54.1649962,50.9909986 53.805756,51.5988704 C53.5316645,49.7425065 52.7336292,46.2346898 49.22389,47.7264553 C51.1360049,44.9484591 57.181557,46.4427198 55.4938119,50.6307666" id="Fill-18"></path>
                    <path d="M49.9474668,74.5901809 L49.4651652,74.5901809 C43.0877198,69.6966409 40.2569943,59.9532254 39.0963005,50.6308602 C40.5947919,54.4486947 42.1395868,58.0182655 44.1601574,61.7634298 C46.2490955,65.635533 50.6932942,70.1591725 49.9474668,74.5901809" id="Fill-20"></path>
                    <path d="M41.0253519,51.5987145 C41.4147359,51.5304108 41.4405291,51.8273292 41.7488044,51.8407404 C42.9641922,52.9900518 43.7149917,54.3352294 44.8837653,55.4711295 C47.4236182,57.9397318 51.8811796,58.8176996 52.1179798,63.4573619 C48.9230419,62.6402124 46.5081151,60.2027991 44.6426145,57.8910771 C43.3243646,56.2580257 42.5191819,54.0539055 41.2665027,52.3247923 C41.1390905,52.1301735 41.014786,51.931812 41.0253519,51.5987145" id="Fill-22"></path>
                    <path d="M86.1185393,30.7854503 C83.1976929,29.1979348 79.8016924,27.3630912 75.5085238,26.6713212 C71.8058018,26.0743655 67.4902583,26.8069929 64.174745,25.2188536 C64.7030393,24.6811568 65.9274392,23.8898942 65.1393483,22.7989061 C62.9363608,20.0758024 60.787135,24.1656042 62.7278399,25.2188536 C60.5114897,25.7849324 59.8641737,27.0979855 57.4228322,27.3970871 C54.888573,27.7077287 52.4065218,26.1944428 50.1886177,27.1550612 C47.8942663,28.1490517 47.1782721,34.3830911 46.330515,37.0778129 C44.6008171,42.5751702 42.7862813,46.5027896 38.6139988,48.9364603 C37.0490044,40.6289822 37.4262688,32.7509754 42.7132524,28.6072168 C44.9861612,26.8257063 47.1742322,26.4726478 49.2240143,25.2188536 C53.2831796,22.7362164 56.8410868,16.1622179 63.6924433,18.684777 C65.6145025,19.3921415 67.1487315,21.8420304 68.997451,22.7989061 C70.4813367,23.5667771 72.3586463,23.5262315 74.0616187,24.0087239 C78.8445473,25.3648177 82.4133312,27.5692499 86.1185393,30.5434244 L86.1185393,30.7854503 Z" id="Fill-24"></path>
                </g>
            </g>
        </g>
    </g>
</svg>