<?xml version="1.0" encoding="UTF-8" standalone="no"?>
<svg width="76px" height="73px" viewBox="0 0 76 73" version="1.1" xmlns="http://www.w3.org/2000/svg" xmlns:xlink="http://www.w3.org/1999/xlink">
    <!-- Generator: Sketch 43.2 (39069) - http://www.bohemiancoding.com/sketch -->
    <title>TX_1_</title>
    <desc>Created with Sketch.</desc>
    <defs></defs>
    <g id="Page-1" stroke="none" stroke-width="1" fill="none" fill-rule="evenodd">
        <g id="Desktop-HD-Copy" transform="translate(-682.000000, -805.000000)" fill-rule="nonzero" fill="#333F57">
            <g id="Group" transform="translate(246.000000, 805.000000)">
                <path d="M459.384982,0.02 L466.299516,0.35 L475.774879,0.698 L475.356907,7.944 L475.217916,13.382 L475.288911,13.868 L476.611822,14.983 L477.23778,15.329 L477.446766,15.261 L477.654752,14.634 L478.072724,15.193 L478.699682,15.193 L478.699682,14.773 L479.535625,15.193 L479.396635,16.377 L480.65055,16.447 L481.417499,16.795 L482.672414,17.004 L483.438363,17.561 L484.134316,16.934 L485.179246,17.145 L485.946194,18.19 L486.224175,18.19 L486.224175,18.885 L486.921128,19.094 L487.618081,18.399 L488.175044,18.606 L488.941992,18.606 L489.219974,19.374 L490.683875,19.931 L491.100847,19.722 L491.657809,18.47 L492.006786,18.47 L492.355763,19.095 L493.609678,19.304 L494.722603,19.722 L495.628542,20.001 L496.187505,19.722 L496.39849,18.956 L497.720401,18.956 L498.347359,19.235 L499.183303,18.606 L499.53128,18.606 L499.740265,19.094 L500.996181,19.094 L501.484148,18.469 L502.041111,18.606 L502.668068,19.374 L503.645003,19.931 L504.619937,20.21 L505.455881,20.595 L506.152834,21.185 L507.058773,20.767 L507.894717,21.117 L508.099703,24.5 L508.103703,27.459 L508.310689,30.314 L508.519675,31.498 L509.287623,32.752 L509.566604,34.285 L510.890515,35.959 L510.95851,36.934 L511.167496,37.143 L510.95851,39.721 L510.054571,41.254 L510.542538,41.881 L510.333552,42.647 L510.122567,44.877 L509.704595,45.852 L509.790589,46.944 L507.821722,47.477 L504.815924,48.856 L504.518944,49.448 L503.731997,50.04 L503.09104,50.483 L502.696067,50.729 L500.971183,52.354 L500.133239,52.995 L498.508348,53.981 L496.785464,54.715 L494.865594,55.75 L494.32363,56.193 L492.549749,57.277 L491.514819,57.472 L490.332899,59.148 L489.100982,59.248 L488.806001,59.84 L489.494955,60.43 L489.051985,62.106 L488.657011,63.485 L488.313035,64.669 L488.067051,66.048 L488.313035,66.786 L488.854998,68.905 L489.149978,70.776 L489.690942,71.616 L489.395962,72.057 L488.459025,72.651 L486.735141,71.467 L485.060254,71.121 L484.66628,71.269 L483.681346,71.072 L482.400433,70.136 L480.824539,69.79 L478.508695,68.755 L477.867738,67.573 L477.473764,65.602 L476.48883,65.01 L476.291844,64.321 L476.48883,64.124 L476.586824,63.091 L476.19285,62.894 L475.995864,62.597 L476.389837,61.267 L475.89687,60.578 L474.911937,60.183 L473.877006,58.855 L472.793079,56.834 L471.512165,56.045 L471.561162,55.453 L469.936272,51.711 L469.689288,50.428 L469.147325,49.838 L469.098328,49.395 L467.275451,47.768 L466.486504,46.832 L466.486504,46.488 L465.698557,45.845 L463.629696,45.501 L461.363849,45.304 L460.426912,44.615 L459.048004,45.156 L457.964077,45.599 L457.275124,46.585 L456.979144,47.718 L455.649233,49.591 L454.910283,50.329 L454.121336,50.034 L453.580372,49.688 L452.988412,49.491 L451.806492,48.802 L451.806492,48.605 L451.264528,48.015 L449.687634,47.372 L447.421787,45.009 L446.731833,43.579 L446.731833,41.116 L445.7469,39.145 L445.59891,38.307 L445.105943,38.01 L444.760966,37.371 L443.233069,36.728 L442.839095,36.238 L440.672241,33.824 L440.277268,32.838 L438.848364,32.149 L438.405394,30.819 L437.617447,29.93 L437.025487,29.784 L436.8275,28.358 L439.266336,28.567 L448.11474,29.403 L456.962145,29.891 L457.659098,22.645 L458.844018,5.713 L459.331985,0 L459.749957,0.008 L459.384982,0.02 Z M489.912927,71.319 L489.740939,69.151 L488.903995,66.96 L488.732006,64.817 L489.199975,62.303 L490.209907,60.209 L491.268836,58.559 L492.229771,57.473 L492.426758,57.549 L490.973856,59.569 L489.642945,61.563 L489.027986,63.583 L488.928993,65.161 L489.199975,67.032 L489.988922,69.225 L490.136912,70.803 L490.185909,71.244 L489.912927,71.319 Z" id="TX_1_"></path>
            </g>
        </g>
    </g>
</svg>